<svg xmlns="http://www.w3.org/2000/svg" width="1500" height="1000" viewBox="0 0 1500 1000" role="img"><title>Mars — zwei Kontinente, zwölf Karten</title><rect width="100%" height="100%" fill="#102c35"/><g font-family="Segoe UI,Arial,sans-serif"><text x="70" y="65" font-size="18" fill="#86c8c7" letter-spacing="4">MARS &amp; HOPE</text><text x="70" y="111" font-size="40" fill="#e8e6dd" >Von Ozis zur offenen Hand</text><text x="70" y="145" font-size="19" fill="#b4c6c6" >Terraformingwelt · 40 % Oberflächenwasser · Reisejahr 2811</text><path d="M60 230 H1040" stroke="#23424a" stroke-width="1"/><path d="M60 330 H1040" stroke="#23424a" stroke-width="1"/><path d="M60 430 H1040" stroke="#23424a" stroke-width="1"/><path d="M60 530 H1040" stroke="#23424a" stroke-width="1"/><path d="M60 630 H1040" stroke="#23424a" stroke-width="1"/><path d="M60 730 H1040" stroke="#23424a" stroke-width="1"/><path d="M60 830 H1040" stroke="#23424a" stroke-width="1"/><path d="M80 190 V915" stroke="#23424a" stroke-width="1"/><path d="M200 190 V915" stroke="#23424a" stroke-width="1"/><path d="M320 190 V915" stroke="#23424a" stroke-width="1"/><path d="M440 190 V915" stroke="#23424a" stroke-width="1"/><path d="M560 190 V915" stroke="#23424a" stroke-width="1"/><path d="M680 190 V915" stroke="#23424a" stroke-width="1"/><path d="M800 190 V915" stroke="#23424a" stroke-width="1"/><path d="M920 190 V915" stroke="#23424a" stroke-width="1"/><path d="M1040 190 V915" stroke="#23424a" stroke-width="1"/><path d="M213 266 Q295 201 373 240 L452 215 Q499 229 515 302 L481 380 L533 432 L489 510 Q440 550 468 634 L419 697 L334 722 L249 665 Q279 592 223 528 L162 440 L188 353 Z" fill="#8c5944" stroke="#c18b64" stroke-width="3"/><path d="M600 240 L697 196 L798 215 L883 176 L951 247 Q1015 302 976 375 L927 428 L955 499 L887 553 L845 622 L748 663 L657 605 L639 524 L586 457 L615 371 L570 304 Z" fill="#90644d" stroke="#c5956b" stroke-width="3"/><path d="M265 786 Q303 747 355 765 L397 798 L387 852 L342 900 L282 880 L251 831 Z" fill="#739278" stroke="#a1c39d" stroke-width="3"/><path d="M309 669 Q352 586 371 499 T441 399 M320 641 Q348 560 294 462 M718 591 Q735 477 827 419 T870 261" fill="none" stroke="#77b9c3" stroke-width="7"/><text x="269" y="295" font-size="29" fill="#f5ddb8" letter-spacing="4">THARSIS</text><text x="715" y="323" font-size="29" fill="#f5ddb8" letter-spacing="4">ELYSIA</text><text x="302" y="934" font-size="25" fill="#c4dfb6" letter-spacing="4">OZIS</text><text x="414" y="757" font-size="18" fill="#8eb6bc" >Südmeer</text><text x="650" y="170" font-size="20" fill="#8eb6bc" >Nördlicher Ozean</text><polyline points="303,853 331,819 349,779 334,661 352,591 373,510 477,426 624,449 701,397 797,347 865,266 916,214" fill="none" stroke="#fff0be" stroke-width="4" stroke-dasharray="8 7"/><circle cx="303" cy="853" r="17" fill="#f6d793" stroke="#20343a" stroke-width="3"/><text x="303" y="859" font-size="15" fill="#243b40" text-anchor="middle" font-weight="700">01</text><circle cx="331" cy="819" r="17" fill="#f6d793" stroke="#20343a" stroke-width="3"/><text x="331" y="825" font-size="15" fill="#243b40" text-anchor="middle" font-weight="700">02</text><circle cx="349" cy="779" r="17" fill="#f6d793" stroke="#20343a" stroke-width="3"/><text x="349" y="785" font-size="15" fill="#243b40" text-anchor="middle" font-weight="700">03</text><circle cx="334" cy="661" r="17" fill="#f6d793" stroke="#20343a" stroke-width="3"/><text x="334" y="667" font-size="15" fill="#243b40" text-anchor="middle" font-weight="700">04</text><circle cx="352" cy="591" r="17" fill="#f6d793" stroke="#20343a" stroke-width="3"/><text x="352" y="597" font-size="15" fill="#243b40" text-anchor="middle" font-weight="700">05</text><circle cx="373" cy="510" r="17" fill="#f6d793" stroke="#20343a" stroke-width="3"/><text x="373" y="516" font-size="15" fill="#243b40" text-anchor="middle" font-weight="700">06</text><circle cx="477" cy="426" r="17" fill="#f6d793" stroke="#20343a" stroke-width="3"/><text x="477" y="432" font-size="15" fill="#243b40" text-anchor="middle" font-weight="700">07</text><circle cx="624" cy="449" r="17" fill="#f6d793" stroke="#20343a" stroke-width="3"/><text x="624" y="455" font-size="15" fill="#243b40" text-anchor="middle" font-weight="700">08</text><circle cx="701" cy="397" r="17" fill="#f6d793" stroke="#20343a" stroke-width="3"/><text x="701" y="403" font-size="15" fill="#243b40" text-anchor="middle" font-weight="700">09</text><circle cx="797" cy="347" r="17" fill="#f6d793" stroke="#20343a" stroke-width="3"/><text x="797" y="353" font-size="15" fill="#243b40" text-anchor="middle" font-weight="700">10</text><circle cx="865" cy="266" r="17" fill="#f6d793" stroke="#20343a" stroke-width="3"/><text x="865" y="272" font-size="15" fill="#243b40" text-anchor="middle" font-weight="700">11</text><circle cx="916" cy="214" r="17" fill="#f6d793" stroke="#20343a" stroke-width="3"/><text x="916" y="220" font-size="15" fill="#243b40" text-anchor="middle" font-weight="700">12</text><rect x="1060" y="183" width="400" height="731" rx="18" fill="#163942"/><text x="1086" y="225" font-size="18" fill="#9ad0c9" >DIE ZWÖLF KARTEN</text><text x="1085" y="303" font-size="16" fill="#e8e6dd" >01  Ozis · Gras und erste Hand</text><text x="1085" y="341" font-size="16" fill="#e8e6dd" >02  Ozis · Lagunen und Lernen</text><text x="1085" y="379" font-size="16" fill="#e8e6dd" >03  Ozis · Fest der zweiten Schale</text><text x="1085" y="417" font-size="16" fill="#e8e6dd" >04  Tharsis · Vier Dörfer / Mine</text><text x="1085" y="455" font-size="16" fill="#e8e6dd" >05  Tharsis · Der geteilte Strom</text><text x="1085" y="493" font-size="16" fill="#e8e6dd" >06  Tharsis · Roox’ Verwaltung</text><text x="1085" y="531" font-size="16" fill="#e8e6dd" >07  Tharsis · Archivklippen</text><text x="1085" y="569" font-size="16" fill="#e8e6dd" >08  Elysia · Regulierte Tiefebene</text><text x="1085" y="607" font-size="16" fill="#e8e6dd" >09  Elysia · Titan und Binnenwerft</text><text x="1085" y="645" font-size="16" fill="#e8e6dd" >10  Elysia · Chor der Einzelnen</text><text x="1085" y="683" font-size="16" fill="#e8e6dd" >11  Elysia · Pumpenkammern</text><text x="1085" y="721" font-size="16" fill="#e8e6dd" >12  Elysia · Die offene Hand</text><text x="1086" y="790" font-size="18" fill="#f6d793" >L03 → Gefährte</text><text x="1086" y="824" font-size="18" fill="#f6d793" >L08 → Titan; ab L09 im Einsatz</text><text x="1086" y="866" font-size="16" fill="#b6d2cc" >Tillus hilft L08 nur nach Rettung.</text><text x="70" y="968" font-size="16" fill="#a7bdbe" >Schematischer Weltentwurf · Küsten und Entfernungen ohne geodätischen Maßstab · keine reale heutige Marskarte</text></g></svg>